<svg xmlns="http://www.w3.org/2000/svg" xmlns:xlink="http://www.w3.org/1999/xlink" version="1.1" x="0px" y="0px" viewBox="0 0 512 640" style="enable-background:new 0 0 512 512;" xml:space="preserve"><g><path  fill="#007bff" d="M378.68573,429.0112305v-44.9976807h62.7461548v-62.3686523H339.9581909v53.454834h-62.7462769v53.911499h-48.5249634   v-53.911499h-72.2219849v-42.5015869l33.8182373,36.8300781c1.3701172,1.4919434,3.2457275,2.248291,5.1276855,2.2480469   c1.682251-0.0002441,3.3696899-0.6049805,4.7036133-1.8294678l14.7410889-13.5355225   c2.8255005-2.5949707,3.0135498-7.005249,0.4189453-9.831543l-66.8302002-72.7821045   c0.9829102-0.2910156,1.9165039-0.8043213,2.7209473-1.5432129l14.7410889-13.5355225   c2.8254395-2.5948486,3.0135498-7.005127,0.4188232-9.831543l-27.0708008-29.4818115   c-2.5948486-2.8253174-7.0050659-3.0135498-9.831543-0.4189453l-14.7411499,13.5355225   c-1.4467163,1.3288574-2.2019653,3.1334229-2.2462769,4.9576416c-1.8208618-0.1113281-3.6838989,0.4881592-5.1309814,1.8165283   l-11.0484009,10.1448975c-4.6374512,4.2581787-11.2466431,11.0924072-15.0855103,21.2365723   c-4.2737427,11.2938232-4.1802979,24.2509766,0.2779541,38.5126953c1.1453247,3.6622314,5.0563354,5.7088623,8.7178345,4.5645752   c0.9736328-0.3044434,1.8851318-0.8305664,2.6324463-1.5183105l20.2615356-18.604248   c1.1130371-1.0219727,2.5308838-1.5498047,3.9909058-1.4886475c1.4604492,0.0625,2.8276978,0.7097168,3.8497314,1.822876   l25.5065918,27.7781982H54.9912109v62.3686523h72.2219849v44.9976807H69.7744141v62.3686523h101.4737549v-53.911377h48.5249634   v53.911377h101.4738159v-53.911377h34.2880859v53.911377h101.4737549v-62.3686523H378.68573z M348.8720093,330.5587158h83.6460571   v44.5410156H378.68573h-29.8137207V330.5587158z M127.4666138,287.8376465   c-2.6324463-2.8666992-6.1964722-4.5356445-10.0356445-4.6993408c-0.2073975-0.0089111-0.4139404-0.0133057-0.6203613-0.0133057   c-3.6151123,0-7.0671997,1.3514404-9.7791748,3.8417969L89.0877686,303.442627   c-2.9805298-11.1091309-2.8417969-21.0915527,0.4196777-29.7097168c3.1675415-8.3702393,8.8092651-14.182373,12.7774048-17.8259277   l9.6108398-8.8250732l6.7720337,7.3664551l10.2510986-9.4127197l-6.7676392-7.3703613l11.8602295-10.8902588l24.4255371,26.6009521   l-11.8602295,10.8903809l-6.7675171-7.3706055l-10.2510986,9.4127197l13.4418335,14.6390381l-11.8602295,10.8903809   L127.4666138,287.8376465z M137.168457,298.4035645l11.8602295-10.8903809l58.3574829,63.5551758l-11.8602295,10.8902588   L137.168457,298.4035645z M63.9050293,375.0997314v-44.5410156h83.6461182v44.5410156h-20.3379517H63.9050293z    M162.3343506,482.4660645H78.6882324v-44.5410156h83.6461182V482.4660645z M219.7731323,428.5546875h-83.6461182v-44.5411377   h20.3379517h63.3081665V428.5546875z M312.3331299,482.4660645h-83.6461792v-44.5410156h83.6461792V482.4660645z    M286.1257324,428.5546875v-44.5411377h53.8324585h29.8137207v44.5411377H286.1257324z M448.0949707,482.4660645h-83.6461182   v-44.5410156h83.6461182V482.4660645z"/><path  fill="#007bff" d="M169.8658447,287.9699707h48.2972412c-0.2038574,2.1295166-0.317688,4.2634277-0.317688,6.3963623   c0,0.6756592,0.0385132,1.157959,0.0656128,1.4261475c0.1624756,3.9709473,2.9145508,7.4389648,6.7598267,8.482666   c3.0844727,0.8415527,5.875061,1.9238281,7.656189,2.96875c0.541748,0.3179932,0.9202881,0.5915527,1.177124,0.802002   c-0.1177368,0.3164062-0.3132935,0.7501221-0.637085,1.2995605c-1.0287476,1.7475586-2.9110718,3.9987793-5.2799072,6.3198242   c-2.9243774,2.8288574-3.6324463,7.3134766-1.7167969,10.9150391c3.3729248,6.3043213,7.6652222,11.9984131,12.7401733,16.9073486   c2.9359741,2.8710938,7.4674072,3.4371338,10.992981,1.3927002c2.9590454-1.6884766,5.6531982-2.8937988,7.5858765-3.3937988   c0.6231079-0.1611328,1.0957642-0.2310791,1.432312-0.2583008c0.1347046,0.3066406,0.2981567,0.751709,0.4587402,1.3717041   c0.5143433,1.9847412,0.7852783,4.9996338,0.743103,8.3057861c-0.020813,4.0432129,2.6697388,7.6774902,6.5301514,8.8344727   c6.5350952,1.979248,14.7047729,2.8342285,19.7156372,2.9648438c0.1276855,0.0031738,0.2759399,0.0070801,0.4407959,0.0070801   c0.3451538,0,0.762146-0.0168457,1.2096558-0.0908203c3.7821045-0.2943115,7.0733032-2.9510498,8.133667-6.666748   c0.8846436-3.1987305,1.9844971-6.0290527,3.0176392-7.7647705c0.342041-0.574585,0.6380005-0.9616699,0.8599854-1.2137451   c0.309021,0.1160889,0.7431641,0.3125,1.3047485,0.6437988c1.7733765,1.0500488,4.1062012,3.0025635,6.388855,5.3448486   c2.8284302,2.9239502,7.3126221,3.6323242,10.9121094,1.7183838c6.2202148-3.3220215,11.9155273-7.6348877,16.9104004-12.8010254   c2.8708496-2.9360352,3.4372559-7.4672852,1.3851318-11.0058594c-1.6385498-2.848877-2.8739014-5.6132812-3.3890991-7.5839844   c-0.1658325-0.6345215-0.2351685-1.1115723-0.2609253-1.4462891c0.3131104-0.144043,0.7787476-0.3216553,1.439209-0.4935303   c2.000061-0.5198975,4.9370117-0.7858887,8.2463989-0.7427979c4.1036987,0.0625,7.7786865-2.6181641,8.9520874-6.5373535   c1.9276123-6.4052734,2.9049683-13.0351562,2.9049683-19.7055664c0-0.3581543,0-0.8354492-0.0681152-1.362915   c-0.0877686-1.8690186-0.7545166-3.6204834-1.8321533-5.0610352H403v-8.9138184h-0.2390137   c0.211853-9.8829346,0.579834-35.2738037-0.1141357-72.7823486l-0.0040894-0.2247314l-0.0267944-0.2233887   c-0.0219727-0.1832275-0.0421143-0.3638916-0.0620117-0.5423584c-1.0663452-9.5551758-4.4974976-13.9663086-64.5910645-35.6032715   c-4.9971313-2.161499-17.4066772-7.7167969-23.0394897-10.9626465l-0.453125-11.8774414   c8.9025269-6.8308105,15.9603882-16.774292,20.0666504-28.5380859c2.5241089-0.260376,4.9054565-1.2915039,6.8561401-3.0072021   c2.4766235-2.1783447,3.9562378-5.1827393,4.1660767-8.4595947l0.4760742-7.4309082   c4.6689453-1.4490967,8.069519-5.8083496,8.069519-10.9473877c0-6.0648193-4.7357178-11.0444336-10.7034302-11.4351807   c-2.151001-31.4682617-26.9926147-56.3742676-57.2161865-56.3742676c-30.2234497,0-55.0650635,24.9060059-57.2161255,56.3742676   c-5.9677734,0.3907471-10.7033691,5.3703613-10.7033691,11.4351807c0,5.0249023,3.2556152,9.2947998,7.7647095,10.8370361   l0.4832153,7.5412598c0.3963623,6.1871338,5.3184204,11.0183105,11.3278809,11.4908447   c4.1071167,11.7523193,11.1609497,21.6860352,20.0563354,28.512207l-0.4506836,11.8790283   c-5.6316528,3.2451172-18.0414429,8.8007812-23.0392456,10.9628906   c-60.0935669,21.6368408-63.5250854,26.0480957-64.5914307,35.6032715   c-0.0198975,0.1784668-0.0400391,0.3591309-0.0620117,0.5423584l-0.0267334,0.2233887l-0.0041504,0.2247314   c-0.9030151,48.8100586-0.0075073,77.1315918,0.0016479,77.4118652L169.8658447,287.9699707z M345.5655518,296.6451416   c-0.1933594,5.0294189-1.0245361,10.0179443-2.4829712,14.8641357c-0.0337524,0.1130371-0.1376343,0.1895752-0.2808228,0.1876221   c-2.902771-0.0389404-7.1030273,0.1134033-10.623291,1.0284424c-3.4438477,0.895752-5.8955078,2.4437256-7.0900269,4.4768066   c-1.1999512,2.0424805-1.3623047,4.9279785-0.4691772,8.3444824c0.9196777,3.5175781,2.8384399,7.2565918,4.2941284,9.7875977   c0.059082,0.1018066,0.0427246,0.2316895-0.0569458,0.3337402c-4.366333,4.5159912-9.3184814,8.2681885-14.7116699,11.1484375   c-0.1030884,0.0550537-0.2319336,0.0349121-0.324707-0.0611572c-1.656311-1.6993408-4.9295044-4.8433838-8.2490234-6.8092041   c-3.0315552-1.7883301-5.8345337-2.421875-8.1046753-1.8337402c-2.2973633,0.5949707-4.4602661,2.5031738-6.2549438,5.5183105   c-1.8498535,3.1081543-3.1686401,7.1252441-3.9393921,9.9127197c-0.0287476,0.1009521-0.1176758,0.1706543-0.2199097,0.1845703   h-2.3673706c-0.0171509-0.0008545-0.0337524-0.0015869-0.0509644-0.0025635l-4.7442627-0.4039307   c-3.7042847-0.4237061-7.6913452-1.1248779-10.9644775-2.1162109c-0.111084-0.0333252-0.1883545-0.1375732-0.1880493-0.2196045   c0.0302734-2.3687744-0.0628662-6.8986816-1.02771-10.6217041c-0.8867798-3.4224854-2.4135132-5.8544922-4.4150391-7.0328369   c-2.0305176-1.1954346-4.9130249-1.3599854-8.336792-0.4742432c-3.4298096,0.887085-7.2070923,2.8179932-9.798645,4.2969971   c-0.1022949,0.0593262-0.2322998,0.0426025-0.3334961-0.0561523c-4.4264526-4.2817383-8.1594849-9.2351074-11.09021-14.7126465   c-0.0546875-0.1029053-0.0343628-0.2316895,0.0697632-0.3327637c2.0752563-2.032959,4.9298096-5.1032715,6.7431641-8.1834717   c1.7681885-3.0015869,2.4188843-5.9007568,1.8321533-8.1636963c-0.5799561-2.2358398-2.49646-4.3623047-5.5422974-6.1494141   c-3.1607666-1.8544922-7.0848389-3.1335449-9.8262329-3.8815918c-0.1127319-0.0305176-0.192688-0.133667-0.1943359-0.2504883   l-0.003479-0.229248l-0.0292358-0.2539062c-0.0209961-0.1821289-0.0253906-0.4128418-0.0253906-0.5740967   c0-5.7716064,0.8658447-11.5625,2.5735474-17.2128906c0.0372925-0.1062012,0.1326294-0.1871338,0.2474365-0.1756592   c3.993042,0.036377,7.7434082-0.3486328,10.5657959-1.0910645c3.3946533-0.8937988,5.8208618-2.4395752,7.0153809-4.4689941   c1.1932983-2.0257568,1.3568726-4.8909912,0.4729614-8.2850342c-0.7041016-2.7054443-2.1445312-5.97229-4.2750854-9.6983643   c-0.0571899-0.1008301-0.0408936-0.2294922,0.0375366-0.310791c4.2593384-4.4069824,9.213501-8.1402588,14.7468872-11.1079102   c0.1025391-0.055542,0.2310181-0.0368652,0.2947998,0.0274658c2.8156128,2.8779297,5.7442627,5.2740479,8.2457275,6.7462158   c3.1213379,1.8376465,5.8474121,2.4746094,8.0996704,1.8913574c2.2377319-0.578125,4.3830566-2.5102539,6.2041016-5.5876465   c1.4883423-2.5152588,2.8898926-6.0280762,3.9489746-9.8996582c0.0305786-0.112793,0.1335449-0.192749,0.2503662-0.1943359   l0.9199219-0.0134277L286.5697632,235c5.8551636,0.0378418,11.5100708,0.8677979,16.8172607,2.4694824   c0.1123657,0.0336914,0.1894531,0.1394043,0.1870117,0.2822266c-0.0350342,2.9138184,0.1152344,7.1225586,1.0300293,10.6262207   c0.8862915,3.3944092,2.432251,5.8232422,4.4718018,7.0249023c2.0239258,1.1914062,4.8876953,1.3552246,8.2825928,0.4727783   c2.8146362-0.7314453,6.2842407-2.2310791,9.7589111-4.2165527c0.1011353-0.057251,0.2297974-0.0411377,0.3104248,0.0368652   c4.4631958,4.3153076,8.196106,9.2487793,11.1083984,14.6884766c0.055603,0.1022949,0.0366821,0.230835-0.0304565,0.2974854   c-2.0906982,2.0490723-4.9587402,5.1341553-6.7492065,8.1940918c-1.7868042,3.0537109-2.4177856,5.8735352-1.8243408,8.1569824   c0.5799561,2.2263184,2.5090942,4.3671875,5.5787354,6.1911621c2.5161743,1.4953613,6.0084839,2.8978271,9.8476562,3.9533691   c0.1003418,0.0270996,0.1746216,0.1115723,0.1911011,0.2119141l0.006958,0.1635742l0.0089111-0.0002441V296.6451416z    M371.1445923,191.8027344c7.3532715,3.057373,12.6859131,5.5665283,16.347168,7.6717529   c5.8214111,3.34729,5.9490356,4.491333,6.2033081,6.7701416c0.0142822,0.1276855,0.0286255,0.2563477,0.0435181,0.3859863   c0.6908569,37.5163574,0.3152466,62.7856445,0.1068115,72.3983154h-22.7008057V191.8027344z M281.0231323,29.8317871   c1.6968384-0.1933594,3.4181519-0.2978516,5.1621094-0.2978516s3.4651489,0.1044922,5.1619873,0.2978516v16.8127441   c0,2.8464355-2.3156128,5.1621094-5.1619873,5.1621094s-5.1621094-2.3156738-5.1621094-5.1621094V29.8317871z    M229.7255249,90.9755859c-1.380127,0-2.5460815-1.1657715-2.5460815-2.5460205s1.1659546-2.5460205,2.5460815-2.5460205h8.0056152   l0.0004272-4.456543c0.0025635-23.371582,14.506958-43.177002,34.3777466-49.6523438v14.869873   c0,7.7615967,6.3143921,14.0759277,14.0759277,14.0759277c7.7614136,0,14.0758057-6.3143311,14.0758057-14.0759277v-14.869873   c19.8707275,6.4752197,34.3751831,26.2807617,34.3776855,49.6523438l0.0004272,4.456543h8.0057983   c1.3800049,0,2.5459595,1.1657715,2.5459595,2.5460205s-1.1659546,2.5460205-2.5459595,2.5460205H229.7255249z    M255.8057861,132.4553223c-7.3433838-8.862793-11.803833-20.2697754-12.8158569-32.565918h86.390564   c-1.0120239,12.2961426-5.4725342,23.7032471-12.815918,32.565918c-2.9013672,3.5015869-6.1304932,6.4343262-9.5895386,8.7792969   c-2.387085,1.3583984-11.2598267,6.0958252-19.5296631,6.5422363c-0.4188232,0.0148926-0.836792,0.0375977-1.2573853,0.0377197   c-9.7522583-0.0125732-18.7591553-5.293335-19.1414795-5.5206299l-1.2393188-0.7751465   C262.190979,139.1303711,258.8227539,136.0964355,255.8057861,132.4553223z M306.039917,159.6580811l-19.8546753,23.512207   l-19.8546753-23.512207l0.2830811-7.4624023c5.4917603,2.644165,11.440979,4.2086182,17.666748,4.4753418   c0.6287231,0.0332031,1.2608643,0.0567627,1.899292,0.0574951c0.0123291,0,0.0233154,0,0.0354614,0   c0.5593262,0,1.1196899-0.0212402,1.6799927-0.0516357c6.2962646-0.2420654,12.3126221-1.8094482,17.8615723-4.4810791   L306.039917,159.6580811z M260.8560791,166.991333l25.3291626,29.9949951l25.3291626-29.9949951   c5.0839233,2.8077393,12.8480835,6.37854,17.9824219,8.6729736c-9.8969727,14.1396484-26.1068115,22.711792-43.6065674,22.711792   c-17.3076172,0-33.5462646-8.5189209-43.4629517-22.5128174   C247.5483398,173.5806885,255.6206055,169.8828125,260.8560791,166.991333z M210.7845459,187.9619141   c6.5354004-2.5507812,14.2221069-5.4241943,23.1893311-8.6743164   c11.4389648,17.3564453,31.0090942,28.0023193,51.9163818,28.0023193c21.107605,0,40.6067505-10.6807861,52.0303955-28.1749268   c9.47229,3.4299316,17.5214844,6.440918,24.3101196,9.0993652v90.8145752h-22.5628662   c1.0476685-1.6737061,2.8287964-3.7772217,5.0928345-5.99646c2.8843994-2.8549805,3.5453491-7.3391113,1.6206665-10.8798828   c-3.3362427-6.2316895-7.62854-11.9058838-12.760437-16.8675537c-2.9068604-2.8060303-7.3911743-3.3724365-10.9154053-1.37146   c-2.779541,1.5883789-5.5456543,2.8037109-7.5889282,3.3347168c-0.62323,0.1621094-1.0884399,0.2316895-1.4137573,0.2590332   c-0.1378784-0.2998047-0.3082886-0.7460938-0.4742432-1.3812256c-0.5108643-1.956665-0.7810059-4.9700928-0.7418213-8.2416992   c0.0727539-4.0968018-2.6177979-7.7789307-6.5336304-8.9512939c-6.0115967-1.8144531-12.3971558-2.770752-18.9854736-2.84375   c-0.1101074-0.0151367-0.2208862-0.0283203-0.331665-0.0395508l-0.2246094-0.0229492h-0.225769   c-0.4215088,0-0.8147583,0.0148926-1.1689453,0.0441895c-0.0770264,0.0064697-0.152771,0.0141602-0.227417,0.0229492   c-3.9584351,0.1745605-7.4122314,2.9226074-8.4526978,6.7561035c-0.840332,3.0722656-1.9411621,5.880127-3.0200195,7.7033691   c-0.324707,0.5488281-0.6060181,0.9372559-0.8251343,1.204834c-0.3166504-0.1287842-0.7436523-0.3317871-1.2852783-0.6506348   c-1.8168335-1.0693359-4.1480103-3.0004883-6.4142456-5.3166504c-2.8547363-2.8842773-7.3389893-3.545166-10.8831787-1.6188965   c-6.3262939,3.3928223-12.0195312,7.6848145-16.9234009,12.7587891c-2.8060303,2.9071045-3.3724976,7.3913574-1.3708496,10.9163818   c1.6968384,2.9676514,2.9020386,5.6420898,3.3936157,7.5310059c0.1605225,0.616333,0.2296143,1.0799561,0.2564697,1.4058838   c-0.3035889,0.1416016-0.7527466,0.3151855-1.3873291,0.4821777c-2.0449829,0.5380859-5.0392456,0.8295898-8.213501,0.7980957   c-4.0737915-0.0427246-7.6203003,2.5466309-8.838623,6.4281006l-0.0133057,0.0430908   c-0.4537354,1.4980469-0.8499146,3.0063477-1.2001953,4.5205078h-8.8270874V187.9619141z M178.6317749,206.6306152   c0.0148926-0.1297607,0.0292969-0.2583008,0.0435181-0.3859863c0.2542725-2.2788086,0.381958-3.4228516,6.2033691-6.7701416   c3.7681274-2.166626,9.3019409-4.7598877,16.9920654-7.9398193v87.5214844h-23.3452759   C178.3170776,269.4556885,177.9406128,244.1665039,178.6317749,206.6306152z"/><path fill="#007bff" d="M286.1852417,251.1134033c-23.8500366,0-43.253479,19.4034424-43.253479,43.2532959   c0,23.8499756,19.4034424,43.253418,43.253479,43.253418s43.2533569-19.4034424,43.2533569-43.253418   C329.4385986,270.5168457,310.0352783,251.1134033,286.1852417,251.1134033z M286.1852417,328.7062988   c-18.9349365,0-34.3396606-15.4046631-34.3396606-34.3395996c0-18.9348145,15.4047241-34.3394775,34.3396606-34.3394775   s34.3395386,15.4046631,34.3395386,34.3394775C320.5247803,313.3016357,305.1201782,328.7062988,286.1852417,328.7062988z"/><path fill="#007bff" d="M286.1852417,269.9431152c-13.4672241,0-24.4237061,10.956543-24.4237061,24.423584   c0,13.4674072,10.9564819,24.4238281,24.4237061,24.4238281s24.4237061-10.9564209,24.4237061-24.4238281   C310.6089478,280.8996582,299.6524658,269.9431152,286.1852417,269.9431152z M286.1852417,309.876709   c-8.552124,0-15.5098877-6.9577637-15.5098877-15.5100098c0-8.552002,6.9577637-15.5097656,15.5098877-15.5097656   s15.5098267,6.9577637,15.5098267,15.5097656C301.6950684,302.9189453,294.7373657,309.876709,286.1852417,309.876709z"/></g></svg>