<?xml version="1.0"?>
<svg xmlns="http://www.w3.org/2000/svg" xmlns:xlink="http://www.w3.org/1999/xlink" xmlns:svgjs="http://svgjs.com/svgjs" version="1.1" width="512" height="512" x="0" y="0" viewBox="0 0 512 512" style="enable-background:new 0 0 512 512" xml:space="preserve" class=""><g><g xmlns="http://www.w3.org/2000/svg"><path d="m172.143 137.714h30v30h-30z" fill="#007bff" data-original="#000000" style="" class=""/><path d="m172.143 206.571h30v30h-30z" fill="#007bff" data-original="#000000" style="" class=""/><path d="m309.857 206.571h30v30h-30z" fill="#007bff" data-original="#000000" style="" class=""/><path d="m378.714 206.571h30v30h-30z" fill="#007bff" data-original="#000000" style="" class=""/><path d="m309.857 275.429h30v30h-30z" fill="#007bff" data-original="#000000" style="" class=""/><path d="m378.714 275.429h30v30h-30z" fill="#007bff" data-original="#000000" style="" class=""/><path d="m309.857 344.286h30v30h-30z" fill="#007bff" data-original="#000000" style="" class=""/><path d="m378.714 344.286h30v30h-30z" fill="#007bff" data-original="#000000" style="" class=""/><path d="m309.857 413.143h30v30h-30z" fill="#007bff" data-original="#000000" style="" class=""/><path d="m378.714 413.143h30v30h-30z" fill="#007bff" data-original="#000000" style="" class=""/><path d="m103.286 206.571h30v30h-30z" fill="#007bff" data-original="#000000" style="" class=""/><path d="m172.143 275.429h30v30h-30z" fill="#007bff" data-original="#000000" style="" class=""/><path d="m103.286 275.429h30v30h-30z" fill="#007bff" data-original="#000000" style="" class=""/><path d="m172.143 344.286h30v30h-30z" fill="#007bff" data-original="#000000" style="" class=""/><path d="m103.286 344.286h30v30h-30z" fill="#007bff" data-original="#000000" style="" class=""/><path d="m477.571 482v-344.286h-206.571v-71.564l-34.429 5.738v-71.888h-167.714v99.841l-34.428 5.738v376.421h-34.429v30h512v-30zm-30-314.286v314.286h-176.571v-314.286zm-348.714-137.714h107.714v46.888l-107.714 17.953zm-34.428 100.993 176.571-29.429v36.15 344.286h-38.857v-68.857h-98.857v68.857h-38.857zm107.714 351.007h-38.857v-38.857h38.857z" fill="#007bff" data-original="#000000" style="" class=""/></g></g></svg>
