<svg xmlns="http://www.w3.org/2000/svg" xmlns:xlink="http://www.w3.org/1999/xlink" version="1.1" x="0px" y="0px" viewBox="0 0 48 60" enable-background="new 0 0 48 48" xml:space="preserve"><g><path fill="#007bff" d="M43.1,39H28c-0.6,0-1-0.4-1-1s0.4-1,1-1h14.1V14.6H16.8v1.2c0,0.6-0.4,1-1,1s-1-0.4-1-1v-2.2   c0-0.6,0.4-1,1-1h27.3c0.6,0,1,0.4,1,1V38C44.1,38.6,43.7,39,43.1,39z"/><path fill="#007bff" d="M47,14.6C47,14.6,47,14.6,47,14.6H11.9c-0.3,0-0.7-0.2-0.8-0.5c-0.2-0.3-0.2-0.6-0.1-1l4-8.9   c0.2-0.4,0.5-0.6,0.9-0.6h27c0.4,0,0.7,0.2,0.9,0.6l4,8.7c0.1,0.2,0.2,0.4,0.2,0.6C48,14.2,47.6,14.6,47,14.6z M13.4,12.6h32   l-3.2-6.9H16.5L13.4,12.6z"/><path fill="#007bff" d="M38.1,5.7h-3.6c-0.6,0-1-0.4-1-1V1c0-0.6,0.4-1,1-1h3.6c0.6,0,1,0.4,1,1v3.7C39.1,5.3,38.7,5.7,38.1,5.7z    M35.5,3.7h1.6V2h-1.6V3.7z"/><path fill="#007bff" d="M38.1,31.1H32c-0.6,0-1-0.4-1-1v-8c0-0.6,0.4-1,1-1h6.1c0.6,0,1,0.4,1,1v8C39.1,30.7,38.7,31.1,38.1,31.1z    M33,29.1h4.1v-6H33V29.1z"/><g><path fill="#007bff" d="M17,34.8c-5.1,0-9.3-4.4-9.3-9.8c0-5.4,4.2-9.8,9.3-9.8s9.3,4.4,9.3,9.8C26.3,30.4,22.1,34.8,17,34.8z     M17,17.2c-4,0-7.3,3.5-7.3,7.8s3.3,7.8,7.3,7.8s7.3-3.5,7.3-7.8S21,17.2,17,17.2z"/><path fill="#007bff" d="M33,48H1c-0.3,0-0.6-0.1-0.7-0.3S0,47.2,0,46.9c0.5-5.7,5-10.4,11.4-12.2c0.3-0.1,0.5,0,0.8,0.1    c0.2,0.1,0.4,0.4,0.5,0.6l1.3,6l0.8-1.2l-0.6-1.1c-0.2-0.4-0.1-0.9,0.2-1.3l2-1.7c0.4-0.3,0.9-0.3,1.3,0l1.9,1.7    c0.3,0.3,0.4,0.8,0.2,1.2l-0.6,1.1l0.8,1.3l1.4-6c0.1-0.3,0.2-0.5,0.5-0.6c0.2-0.1,0.5-0.2,0.8-0.1C29,36.6,33.5,41.4,34,46.9    c0,0.3-0.1,0.6-0.3,0.8S33.3,48,33,48z M2.2,46h29.7c-0.8-4-4.2-7.4-8.8-9l-1.7,7.3c-0.1,0.4-0.4,0.7-0.8,0.8    c-0.4,0.1-0.8-0.1-1-0.5l-2.4-3.8c-0.2-0.3-0.2-0.7,0-1l0.5-0.9L17,38.3l-0.7,0.6l0.5,0.9c0.2,0.3,0.2,0.7,0,1l-2.4,3.8    c-0.2,0.3-0.6,0.5-1,0.5c-0.4-0.1-0.7-0.4-0.8-0.8L11,37C6.3,38.5,3,42,2.2,46z"/></g></g></svg>